<svg width="46" height="27" viewBox="0 0 46 27" fill="none" xmlns="http://www.w3.org/2000/svg">
<g id="svg-lock" clip-path="url(#clip0_1:12)">
<g id="avain">
<path id="Vector" d="M8.0083 23.0133C10.2174 23.0169 12.0113 21.2291 12.0149 19.0199C12.0186 16.8108 10.2307 15.017 8.0216 15.0133C5.81247 15.0096 4.01863 16.7975 4.01496 19.0066C4.01129 21.2158 5.79917 23.0096 8.0083 23.0133Z" stroke="black" stroke-width="2" stroke-linecap="round" stroke-linejoin="round"/>
<path id="Vector_2" d="M10.8697 16.168L19.0332 8.03159" stroke="black" stroke-width="2" stroke-linecap="round" stroke-linejoin="round"/>
<path id="Vector_3" d="M18.0316 9.02992L20.0282 11.0332" stroke="black" stroke-width="2" stroke-linecap="round" stroke-linejoin="round"/>
<path id="Vector_4" d="M15.0266 12.0249L17.0233 14.0283" stroke="black" stroke-width="2" stroke-linecap="round" stroke-linejoin="round"/>
</g>
<g id="lukko">
<path id="lukkorunko" d="M38 14H28C26.8954 14 26 14.8954 26 16V22C26 23.1046 26.8954 24 28 24H38C39.1046 24 40 23.1046 40 22V16C40 14.8954 39.1046 14 38 14Z" stroke="black" stroke-width="2" stroke-linecap="round" stroke-linejoin="round"/>
<path id="lukkorunko_2" d="M38 14H28C26.8954 14 26 14.8954 26 16V22C26 23.1046 26.8954 24 28 24H38C39.1046 24 40 23.1046 40 22V16C40 14.8954 39.1046 14 38 14Z" stroke="black" stroke-width="2" stroke-linecap="round" stroke-linejoin="round"/>
<path id="ulukko" d="M29 13V11C29 9.93913 29.4214 8.92172 30.1716 8.17157C30.9217 7.42143 31.9391 7 33 7C34.0609 7 35.0783 7.42143 35.8284 8.17157C36.5786 8.92172 37 9.93913 37 11V15" stroke="black" stroke-width="2" stroke-linecap="round" stroke-linejoin="round"/>
<g id="avainreika">
<path id="Vector_5" d="M33 19C33.5523 19 34 18.5523 34 18C34 17.4477 33.5523 17 33 17C32.4477 17 32 17.4477 32 18C32 18.5523 32.4477 19 33 19Z" stroke="black" stroke-width="2" stroke-linecap="round" stroke-linejoin="round"/>
<rect id="Rectangle 1" x="32" y="20" width="2" height="2" rx="1" fill="black"/>
<rect id="Rectangle 2" x="32" y="19" width="2" height="2" fill="black"/>
</g>
<g id="ruuvit">
<rect id="Rectangle 3" x="36" y="22" width="2" height="2" rx="1" fill="black"/>
<rect id="Rectangle 4" x="28" y="22" width="2" height="2" rx="1" fill="black"/>
<rect id="Rectangle 5" x="28" y="14" width="2" height="2" rx="1" fill="black"/>
<rect id="Rectangle 6" x="36" y="14" width="2" height="2" rx="1" fill="black"/>
</g>
</g>
</g>
<defs>
<clipPath id="clip0_1:12">
<rect width="46" height="27" fill="white"/>
</clipPath>
</defs>
</svg>
