<svg width="292" height="292" viewBox="0 0 292 292" fill="none" xmlns="http://www.w3.org/2000/svg">
<g id="svg-github">
<g id="Group">
<path id="Vector" d="M145.66 22C77.3685 22 22 77.3685 22 145.66C22 213.959 77.3685 269.32 145.66 269.32C213.951 269.32 269.32 213.959 269.32 145.66C269.319 77.3685 213.951 22 145.66 22ZM180.299 239.865C179.588 230.189 178.792 218.201 178.746 213.348C178.437 209.623 178.034 200.147 169.039 194.096C204.753 191.105 221.748 171.366 222.97 145.281C223.99 130.427 218.085 117.365 207.598 106.823C208.131 95.5474 207.257 82.1839 206.532 76.3107C198.478 73.9922 179.697 83.9081 174.449 88.1512C163.381 83.8538 136.293 82.3469 119.83 88.1512C108.16 79.9434 94.8742 74.8734 87.6325 76.2878C80.9469 91.1039 85.2444 105.108 86.5501 106.777C77.9399 114.646 65.9296 124.33 69.1913 144.617C74.4235 174.365 95.353 190.411 129.05 194.336C121.863 195.805 120.649 201.169 120.046 203.495C97.416 212.831 90.9477 197.729 88.0876 193.795C78.5893 182.04 70.0641 185.448 69.5385 185.633C69.0283 185.819 68.642 186.561 68.6964 186.916C69.1752 189.451 74.3462 192.025 74.6009 192.233C81.6108 197.458 84.2078 206.895 85.8072 209.584C95.8624 226.116 119.234 219.261 119.458 219.4C119.474 220.845 119.296 233.011 119.157 242.478C76.5417 230.838 45.186 191.962 45.186 145.66C45.186 90.1675 90.1675 45.1869 145.659 45.1869C201.151 45.1869 246.133 90.1675 246.133 145.66C246.133 188.964 218.696 225.744 180.299 239.865Z" fill="black"/>
</g>
</g>
</svg>
